<svg width="187" height="32" viewBox="0 0 187 32" fill="none" xmlns="http://www.w3.org/2000/svg">
  <path fill-rule="evenodd" clip-rule="evenodd"
    d="M1.54286 0C0.69082 0 0 0.682244 0 1.52381V9.14284C0 9.9844 0.69082 10.6666 1.54286 10.6666H9.25714C10.1092 10.6666 10.8 11.3489 10.8 12.1904V19.9694C10.8 20.7226 11.4181 21.3333 12.1809 21.3333H16.2C22.1646 21.3333 27 16.5577 27 10.6666C27 4.77561 22.1646 0 16.2 0H1.54286ZM1.54286 21.3334C0.690766 21.3334 5.1915e-06 22.0156 5.1915e-06 22.8572V30.4762C5.1915e-06 31.3178 0.690766 32 1.54286 32H9.25714C10.1092 32 10.8 31.3178 10.8 30.4762V22.8572C10.8 22.0156 10.1092 21.3334 9.25714 21.3334H1.54286Z"
    fill="#6A43FB" />
  <path
    d="M43.728 26V8.12H50.4C51.616 8.12 52.688 8.344 53.616 8.792C54.56 9.224 55.296 9.864 55.824 10.712C56.352 11.544 56.616 12.56 56.616 13.76C56.616 14.944 56.344 15.96 55.8 16.808C55.272 17.64 54.544 18.28 53.616 18.728C52.688 19.176 51.616 19.4 50.4 19.4H46.992V26H43.728ZM46.992 16.52H50.448C51.04 16.52 51.552 16.408 51.984 16.184C52.416 15.944 52.752 15.616 52.992 15.2C53.232 14.784 53.352 14.304 53.352 13.76C53.352 13.2 53.232 12.72 52.992 12.32C52.752 11.904 52.416 11.584 51.984 11.36C51.552 11.12 51.04 11 50.448 11H46.992V16.52ZM59.0265 26V12.944H61.9785V15.848L61.7385 15.416C62.0425 14.44 62.5145 13.76 63.1545 13.376C63.8105 12.992 64.5945 12.8 65.5065 12.8H66.2745V15.584H65.1465C64.2505 15.584 63.5305 15.864 62.9865 16.424C62.4425 16.968 62.1705 17.736 62.1705 18.728V26H59.0265ZM74.3871 26.288C73.1071 26.288 71.9391 25.992 70.8831 25.4C69.8431 24.808 69.0111 24 68.3871 22.976C67.7791 21.952 67.4751 20.784 67.4751 19.472C67.4751 18.16 67.7791 16.992 68.3871 15.968C69.0111 14.944 69.8431 14.136 70.8831 13.544C71.9231 12.952 73.0911 12.656 74.3871 12.656C75.6671 12.656 76.8271 12.952 77.8671 13.544C78.9071 14.136 79.7311 14.944 80.3391 15.968C80.9631 16.976 81.2751 18.144 81.2751 19.472C81.2751 20.784 80.9631 21.952 80.3391 22.976C79.7151 24 78.8831 24.808 77.8431 25.4C76.8031 25.992 75.6511 26.288 74.3871 26.288ZM74.3871 23.408C75.0911 23.408 75.7071 23.24 76.2351 22.904C76.7791 22.568 77.2031 22.104 77.5071 21.512C77.8271 20.904 77.9871 20.224 77.9871 19.472C77.9871 18.704 77.8271 18.032 77.5071 17.456C77.2031 16.864 76.7791 16.4 76.2351 16.064C75.7071 15.712 75.0911 15.536 74.3871 15.536C73.6671 15.536 73.0351 15.712 72.4911 16.064C71.9471 16.4 71.5151 16.864 71.1951 17.456C70.8911 18.032 70.7391 18.704 70.7391 19.472C70.7391 20.224 70.8911 20.904 71.1951 21.512C71.5151 22.104 71.9471 22.568 72.4911 22.904C73.0351 23.24 73.6671 23.408 74.3871 23.408ZM81.8593 31.304C81.6513 31.304 81.4353 31.296 81.2113 31.28C80.9873 31.264 80.8033 31.24 80.6593 31.208V28.472C80.9473 28.52 81.2353 28.544 81.5233 28.544C82.1953 28.544 82.7153 28.384 83.0833 28.064C83.4673 27.76 83.6593 27.288 83.6593 26.648V12.944H86.8033V26.648C86.8033 27.64 86.6033 28.48 86.2033 29.168C85.8033 29.872 85.2273 30.4 84.4753 30.752C83.7393 31.12 82.8673 31.304 81.8593 31.304ZM83.6593 11.48V8.12H86.8033V11.48H83.6593ZM95.8982 26.288C94.5542 26.288 93.3782 25.984 92.3702 25.376C91.3622 24.768 90.5782 23.944 90.0182 22.904C89.4582 21.864 89.1782 20.712 89.1782 19.448C89.1782 18.136 89.4582 16.976 90.0182 15.968C90.5942 14.944 91.3702 14.136 92.3462 13.544C93.3382 12.952 94.4422 12.656 95.6582 12.656C96.6822 12.656 97.5782 12.824 98.3462 13.16C99.1302 13.496 99.7942 13.96 100.338 14.552C100.882 15.144 101.298 15.824 101.586 16.592C101.874 17.344 102.018 18.16 102.018 19.04C102.018 19.264 102.002 19.496 101.97 19.736C101.954 19.976 101.914 20.184 101.85 20.36H91.7702V17.96H100.074L98.5862 19.088C98.7302 18.352 98.6902 17.696 98.4662 17.12C98.2582 16.544 97.9062 16.088 97.4102 15.752C96.9302 15.416 96.3462 15.248 95.6582 15.248C95.0022 15.248 94.4182 15.416 93.9062 15.752C93.3942 16.072 93.0022 16.552 92.7302 17.192C92.4742 17.816 92.3782 18.576 92.4422 19.472C92.3782 20.272 92.4822 20.984 92.7542 21.608C93.0422 22.216 93.4582 22.688 94.0022 23.024C94.5622 23.36 95.2022 23.528 95.9222 23.528C96.6422 23.528 97.2502 23.376 97.7462 23.072C98.2582 22.768 98.6582 22.36 98.9462 21.848L101.49 23.096C101.234 23.72 100.834 24.272 100.29 24.752C99.7462 25.232 99.0982 25.608 98.3462 25.88C97.6102 26.152 96.7942 26.288 95.8982 26.288ZM110.69 26.288C109.394 26.288 108.226 25.992 107.186 25.4C106.162 24.792 105.354 23.976 104.762 22.952C104.17 21.912 103.874 20.744 103.874 19.448C103.874 18.152 104.17 16.992 104.762 15.968C105.354 14.944 106.162 14.136 107.186 13.544C108.226 12.952 109.394 12.656 110.69 12.656C111.618 12.656 112.482 12.824 113.282 13.16C114.082 13.48 114.77 13.928 115.346 14.504C115.938 15.064 116.362 15.736 116.618 16.52L113.858 17.72C113.618 17.064 113.21 16.536 112.634 16.136C112.074 15.736 111.426 15.536 110.69 15.536C110.002 15.536 109.386 15.704 108.842 16.04C108.314 16.376 107.898 16.84 107.594 17.432C107.29 18.024 107.138 18.704 107.138 19.472C107.138 20.24 107.29 20.92 107.594 21.512C107.898 22.104 108.314 22.568 108.842 22.904C109.386 23.24 110.002 23.408 110.69 23.408C111.442 23.408 112.098 23.208 112.658 22.808C113.218 22.408 113.618 21.872 113.858 21.2L116.618 22.448C116.362 23.184 115.946 23.848 115.37 24.44C114.794 25.016 114.106 25.472 113.306 25.808C112.506 26.128 111.634 26.288 110.69 26.288ZM124.955 26.144C123.483 26.144 122.339 25.744 121.523 24.944C120.723 24.128 120.323 22.984 120.323 21.512V15.752H118.067V12.944H118.307C118.947 12.944 119.443 12.776 119.795 12.44C120.147 12.104 120.323 11.616 120.323 10.976V9.968H123.467V12.944H126.467V15.752H123.467V21.344C123.467 21.776 123.539 22.144 123.683 22.448C123.843 22.752 124.083 22.984 124.403 23.144C124.739 23.304 125.163 23.384 125.675 23.384C125.787 23.384 125.915 23.376 126.059 23.36C126.219 23.344 126.371 23.328 126.515 23.312V26C126.291 26.032 126.035 26.064 125.747 26.096C125.459 26.128 125.195 26.144 124.955 26.144ZM129.181 26V8.12H132.445V26H129.181ZM135.62 26V12.944H138.572V15.512L138.332 15.056C138.636 14.272 139.132 13.68 139.82 13.28C140.524 12.864 141.34 12.656 142.268 12.656C143.228 12.656 144.076 12.864 144.812 13.28C145.564 13.696 146.148 14.28 146.564 15.032C146.98 15.768 147.188 16.624 147.188 17.6V26H144.044V18.344C144.044 17.768 143.932 17.272 143.708 16.856C143.484 16.44 143.172 16.12 142.772 15.896C142.388 15.656 141.932 15.536 141.404 15.536C140.892 15.536 140.436 15.656 140.036 15.896C139.636 16.12 139.324 16.44 139.1 16.856C138.876 17.272 138.764 17.768 138.764 18.344V26H135.62ZM150.111 26V8.12H157.647C158.831 8.12 159.839 8.328 160.671 8.744C161.519 9.144 162.167 9.72 162.615 10.472C163.079 11.208 163.311 12.104 163.311 13.16C163.311 13.976 163.087 14.744 162.639 15.464C162.207 16.168 161.511 16.752 160.551 17.216V15.704C161.431 16.04 162.127 16.456 162.639 16.952C163.151 17.448 163.511 18 163.719 18.608C163.927 19.216 164.031 19.856 164.031 20.528C164.031 22.24 163.463 23.584 162.327 24.56C161.207 25.52 159.647 26 157.647 26H150.111ZM153.375 23.12H157.983C158.831 23.12 159.503 22.888 159.999 22.424C160.511 21.944 160.767 21.312 160.767 20.528C160.767 19.744 160.511 19.112 159.999 18.632C159.503 18.152 158.831 17.912 157.983 17.912H153.375V23.12ZM153.375 15.056H157.815C158.487 15.056 159.023 14.864 159.423 14.48C159.823 14.08 160.023 13.568 160.023 12.944C160.023 12.32 159.823 11.824 159.423 11.456C159.023 11.088 158.487 10.904 157.815 10.904H153.375V15.056ZM166.441 26V12.944H169.585V26H166.441ZM166.441 11.48V8.12H169.585V11.48H166.441ZM178.871 26.288C177.591 26.288 176.423 25.992 175.367 25.4C174.327 24.808 173.495 24 172.871 22.976C172.263 21.952 171.959 20.784 171.959 19.472C171.959 18.16 172.263 16.992 172.871 15.968C173.495 14.944 174.327 14.136 175.367 13.544C176.407 12.952 177.575 12.656 178.871 12.656C180.151 12.656 181.311 12.952 182.351 13.544C183.391 14.136 184.215 14.944 184.823 15.968C185.447 16.976 185.759 18.144 185.759 19.472C185.759 20.784 185.447 21.952 184.823 22.976C184.199 24 183.367 24.808 182.327 25.4C181.287 25.992 180.135 26.288 178.871 26.288ZM178.871 23.408C179.575 23.408 180.191 23.24 180.719 22.904C181.263 22.568 181.687 22.104 181.991 21.512C182.311 20.904 182.471 20.224 182.471 19.472C182.471 18.704 182.311 18.032 181.991 17.456C181.687 16.864 181.263 16.4 180.719 16.064C180.191 15.712 179.575 15.536 178.871 15.536C178.151 15.536 177.519 15.712 176.975 16.064C176.431 16.4 175.999 16.864 175.679 17.456C175.375 18.032 175.223 18.704 175.223 19.472C175.223 20.224 175.375 20.904 175.679 21.512C175.999 22.104 176.431 22.568 176.975 22.904C177.519 23.24 178.151 23.408 178.871 23.408Z"
    fill="white" />
</svg>
  